# xmcd CD database file
#
# Track frame offsets:
#	150
#	33140
#	46230
#	65650
#	75433
#	90348
#	109948
#	148528
#	156823
#	179543
#	192278
#	210033
#	227955
#	238503
#
# Disc length: 3653 seconds
#
# Revision: 24
# Processed by: cddbd v1.5.2PL0 Copyright (c) Steve Scherf et al.
# Submitted via: CDex 2.23
#
DISCID=ac0e430e
DTITLE=Andre Rieu and the Johann Strauss Orchestra - 100 Years of Strauss
DYEAR=1999
DGENRE=Instrumental
TTITLE0=Vienna Blood
TTITLE1=Perpetual Motion
TTITLE2=Draussen in sievering bluht schon der flieder
TTITLE3=On Holiday
TTITLE4=Fata Morgana
TTITLE5=The Gypsy Baron (Her Die Hand! - Oh Habet Acht!)
TTITLE6=Tales from the Vienna Woods
TTITLE7=Ohne Sorgen
TTITLE8=Casanova (Nun's Chorus)
TTITLE9=Cachucha Galopp
TTITLE10=The Gypsy Baron (Wer Uns Getraut)
TTITLE11=Spanish March
TTITLE12=Eljen a Magyar!
TTITLE13=The Blue Danube
EXTD=YEAR: 1999
EXTT0=
EXTT1=
EXTT2=
EXTT3=
EXTT4=
EXTT5=
EXTT6=
EXTT7=
EXTT8=
EXTT9=
EXTT10=
EXTT11=
EXTT12=
EXTT13=
PLAYORDER=
